<mxfile host="app.diagrams.net" agent="Mozilla/5.0 (Windows NT 10.0; Win64; x64) AppleWebKit/537.36 (KHTML, like Gecko) Chrome/136.0.0.0 Safari/537.36" version="27.0.2">
  <diagram name="PÃ¡gina-1" id="VyBHXF4VmMnohaFcS0GI">
    <mxGraphModel dx="969" dy="486" grid="1" gridSize="10" guides="1" tooltips="1" connect="1" arrows="1" fold="1" page="1" pageScale="1" pageWidth="827" pageHeight="1169" math="0" shadow="0">
      <root>
        <mxCell id="0" />
        <mxCell id="1" parent="0" />
        <mxCell id="fEB4_4uD-vkp4_sQTi3J-2" value="" style="rounded=0;whiteSpace=wrap;html=1;" vertex="1" parent="1">
          <mxGeometry x="240" y="110" width="220" height="420" as="geometry" />
        </mxCell>
        <mxCell id="fEB4_4uD-vkp4_sQTi3J-4" value="CrearMueble" style="ellipse;whiteSpace=wrap;html=1;" vertex="1" parent="1">
          <mxGeometry x="290" y="140" width="120" height="80" as="geometry" />
        </mxCell>
        <mxCell id="fEB4_4uD-vkp4_sQTi3J-5" value="ModificarMueble" style="ellipse;whiteSpace=wrap;html=1;" vertex="1" parent="1">
          <mxGeometry x="290" y="230" width="120" height="80" as="geometry" />
        </mxCell>
        <mxCell id="fEB4_4uD-vkp4_sQTi3J-6" value="EliminarMueble" style="ellipse;whiteSpace=wrap;html=1;" vertex="1" parent="1">
          <mxGeometry x="290" y="330" width="120" height="80" as="geometry" />
        </mxCell>
        <mxCell id="fEB4_4uD-vkp4_sQTi3J-7" value="ListarMueble" style="ellipse;whiteSpace=wrap;html=1;" vertex="1" parent="1">
          <mxGeometry x="290" y="430" width="120" height="80" as="geometry" />
        </mxCell>
        <mxCell id="fEB4_4uD-vkp4_sQTi3J-13" style="rounded=0;orthogonalLoop=1;jettySize=auto;html=1;" edge="1" parent="1" source="fEB4_4uD-vkp4_sQTi3J-8" target="fEB4_4uD-vkp4_sQTi3J-4">
          <mxGeometry relative="1" as="geometry" />
        </mxCell>
        <mxCell id="fEB4_4uD-vkp4_sQTi3J-14" style="rounded=0;orthogonalLoop=1;jettySize=auto;html=1;" edge="1" parent="1" source="fEB4_4uD-vkp4_sQTi3J-8" target="fEB4_4uD-vkp4_sQTi3J-5">
          <mxGeometry relative="1" as="geometry" />
        </mxCell>
        <mxCell id="fEB4_4uD-vkp4_sQTi3J-15" style="rounded=0;orthogonalLoop=1;jettySize=auto;html=1;" edge="1" parent="1" source="fEB4_4uD-vkp4_sQTi3J-8" target="fEB4_4uD-vkp4_sQTi3J-6">
          <mxGeometry relative="1" as="geometry" />
        </mxCell>
        <mxCell id="fEB4_4uD-vkp4_sQTi3J-16" style="rounded=0;orthogonalLoop=1;jettySize=auto;html=1;" edge="1" parent="1" source="fEB4_4uD-vkp4_sQTi3J-8" target="fEB4_4uD-vkp4_sQTi3J-7">
          <mxGeometry relative="1" as="geometry" />
        </mxCell>
        <mxCell id="fEB4_4uD-vkp4_sQTi3J-8" value="usuario final" style="shape=umlActor;verticalLabelPosition=bottom;verticalAlign=top;html=1;outlineConnect=0;" vertex="1" parent="1">
          <mxGeometry x="170" y="280" width="30" height="60" as="geometry" />
        </mxCell>
        <mxCell id="fEB4_4uD-vkp4_sQTi3J-12" value="Stock Manager" style="text;html=1;align=center;verticalAlign=middle;whiteSpace=wrap;rounded=0;" vertex="1" parent="1">
          <mxGeometry x="240" y="110" width="100" height="30" as="geometry" />
        </mxCell>
      </root>
    </mxGraphModel>
  </diagram>
</mxfile>
